<svg id="Capa_1" data-name="Capa 1" xmlns="http://www.w3.org/2000/svg" viewBox="0 0 54.9 39.1"><defs><style>.cls-1{fill:#111fa5;}</style></defs><title>wifi2</title><path class="cls-1" d="M54.6,19.1a38.5,38.5,0,0,0-54.3,0,1,1,0,0,0,1.4,1.4,36.5,36.5,0,0,1,51.5,0,1,1,0,0,0,1.4-1.4Z" transform="translate(0 -7.9)"/><path class="cls-1" d="M6.2,25a1,1,0,1,0,1.4,1.4,28.1,28.1,0,0,1,39.7,0A1,1,0,1,0,48.7,25,30.1,30.1,0,0,0,6.2,25Z" transform="translate(0 -7.9)"/><path class="cls-1" d="M27.5,24.5a21.6,21.6,0,0,0-15.4,6.4,1,1,0,0,0,1.4,1.4,19.8,19.8,0,0,1,28,0,1,1,0,0,0,1.4-1.4A21.6,21.6,0,0,0,27.5,24.5Z" transform="translate(0 -7.9)"/><path class="cls-1" d="M27.5,33.9A6.6,6.6,0,1,0,34,40.5,6.6,6.6,0,0,0,27.5,33.9Zm0,11.1A4.6,4.6,0,1,1,32,40.5,4.6,4.6,0,0,1,27.5,45Z" transform="translate(0 -7.9)"/></svg>