<svg id="Capa_1" data-name="Capa 1" xmlns="http://www.w3.org/2000/svg" viewBox="0 0 59.8 51"><defs><style>.cls-1{fill:#a8dae0;}</style></defs><title>cloud-computing2</title><path class="cls-1" d="M51,20.7A17.1,17.1,0,0,0,34.1,4.5a17.6,17.6,0,0,0-13.9,7H20l-.6-.3h-.3l-.6-.2H16.2a9,9,0,0,0-9,9v.4a13.8,13.8,0,0,0-7,11.8A12.8,12.8,0,0,0,13,44.5h5a1,1,0,0,0,0-2H12.8A10.9,10.9,0,0,1,2,31.7,11.9,11.9,0,0,1,8.4,21.4l.6-.3v-1H9v-.5a7,7,0,0,1,7-7h1.1l.8.2H18l.8.3H19l.7.4a7,7,0,0,1,3.2,5.9,1,1,0,0,0,2,0,8.9,8.9,0,0,0-3.2-6.9A15.7,15.7,0,0,1,34,6.5,15,15,0,0,1,48.8,20.4a19.4,19.4,0,0,0-4.1.1,1,1,0,0,0-.8,1.1,1.1,1.1,0,0,0,1,.9h.2a22.1,22.1,0,0,1,4.7,0,10.3,10.3,0,0,1,8.2,10,10,10,0,0,1-10,10H44a1,1,0,0,0,0,2h4a12,12,0,0,0,12-12A12.3,12.3,0,0,0,51,20.7Z" transform="translate(-0.2 -4.5)"/><path class="cls-1" d="M38.3,45.8,32,52.1V31.5a1,1,0,0,0-2,0V52.1l-6.3-6.3a1,1,0,1,0-1.4,1.4l8,8,.3.2h.8l.3-.2,8-8a1,1,0,0,0-1.4-1.4Z" transform="translate(-0.2 -4.5)"/></svg>