<?xml version="1.0" encoding="iso-8859-1"?>
<!-- Generator: Adobe Illustrator 19.0.0, SVG Export Plug-In . SVG Version: 6.00 Build 0)  -->
<svg version="1.1" id="Layer_1" xmlns="http://www.w3.org/2000/svg" xmlns:xlink="http://www.w3.org/1999/xlink" x="0px" y="0px"
	 viewBox="0 0 512 512" style="enable-background:new 0 0 512 512;" xml:space="preserve">
<g>
	<g>
		<g>
			<path d="M213.146,328.575c-0.862,7.953-1.289,16.051-1.289,24.183c0,45.158,14.054,86.34,33.69,99.507h20.907
				c19.635-13.167,33.707-54.357,33.707-99.507c0-8.132-0.435-16.23-1.297-24.192C271.428,335.12,240.521,335.112,213.146,328.575z"
				/>
			<path d="M443.661,150.221c0-27.162-22.093-49.263-49.254-49.263c-9.865,0-19.439,2.97-27.537,8.457
				c-30.814-18.628-67.968-30.498-101.419-32.393l17.792-59.46l49.229,14.131c-0.947,3.524-1.613,7.159-1.613,10.974
				c0,23.526,19.149,42.667,42.667,42.667c23.526,0,42.667-19.14,42.667-42.667C416.192,19.14,397.052,0,373.525,0
				c-13.474,0-25.37,6.409-33.195,16.205L285.692,0.521c-7.774-1.894-15.812,2.688-18.295,10.479l-19.797,66.159
				c-34.116,1.877-71.544,13.585-102.46,32.247c-8.098-5.478-17.664-8.448-27.537-8.448c-27.162,0-49.263,22.101-49.263,49.263
				c0,15.309,7.279,29.815,19.319,39.083c-0.23,2.492-0.35,4.983-0.35,7.467c0,32.085,18.432,61.798,51.891,83.635
				c5.948,3.891,12.331,7.475,19.081,10.735c-18.295,15.181-29.483,39.791-29.483,66.748c0,36.514,20.335,68.062,49.997,78.524
				c0.486,1.408,0.973,2.807,1.485,4.19c-25.856,3.507-45.687,22.665-45.687,45.687c0,3.772,0.905,10.428,2.398,15.027
				c2.057,6.391,7.953,10.684,14.669,10.684h206.754c6.801,0,12.723-4.361,14.729-10.829c1.28-4.13,0.888-8.644,0.563-12.279
				c-0.077-0.99-0.179-1.886-0.179-2.603c0-22.997-17.749-41.583-41.856-45.508c0.521-1.434,1.033-2.893,1.536-4.361
				c29.67-10.462,50.005-42.018,50.005-78.532c0-26.957-11.187-51.567-29.483-66.756c6.733-3.251,13.116-6.835,19.081-10.726
				c33.459-21.837,51.891-51.55,51.891-83.635c0-2.475-0.119-4.975-0.341-7.467C436.382,180.036,443.661,165.53,443.661,150.221z
				 M168.725,179.2c0-18.825,15.309-34.133,34.133-34.133s34.133,15.309,34.133,34.133s-15.309,34.133-34.133,34.133
				S168.725,198.025,168.725,179.2z M196.826,232.9c3.328-3.337,8.738-3.337,12.075,0c6.716,6.716,22.579,14.566,45.158,14.566
				s38.443-7.851,45.167-14.566c3.337-3.337,8.738-3.337,12.075,0c3.328,3.337,3.328,8.738,0,12.066
				c-12.083,12.066-34.014,19.567-57.242,19.567s-45.158-7.501-57.233-19.567C193.498,241.63,193.498,236.237,196.826,232.9z
				 M273.114,468.207c-1.28,0.734-2.748,1.126-4.233,1.126h-25.762c-1.485,0-2.944-0.393-4.232-1.126
				c-26.377-15.095-44.1-61.491-44.1-115.447c0-12.254,0.922-24.448,2.731-36.25c0.367-2.441,1.783-4.608,3.874-5.931
				c2.091-1.314,4.659-1.681,7.023-0.947c29.858,9.02,65.237,9.02,95.189-0.009c2.364-0.725,4.932-0.358,7.014,0.956
				c2.099,1.314,3.516,3.482,3.883,5.922c1.809,11.802,2.722,23.996,2.722,36.258C317.222,406.707,299.499,453.112,273.114,468.207z
				 M305.259,213.333c-18.825,0-34.133-15.309-34.133-34.133s15.309-34.133,34.133-34.133c18.825,0,34.133,15.309,34.133,34.133
				S324.083,213.333,305.259,213.333z"/>
			<path d="M219.93,179.2c0-9.412-7.654-17.067-17.067-17.067s-17.067,7.654-17.067,17.067s7.654,17.067,17.067,17.067
				S219.93,188.612,219.93,179.2z"/>
			<path d="M305.259,162.133c-9.412,0-17.067,7.654-17.067,17.067s7.654,17.067,17.067,17.067c9.412,0,17.067-7.654,17.067-17.067
				S314.671,162.133,305.259,162.133z"/>
		</g>
	</g>
</g>
<g>
</g>
<g>
</g>
<g>
</g>
<g>
</g>
<g>
</g>
<g>
</g>
<g>
</g>
<g>
</g>
<g>
</g>
<g>
</g>
<g>
</g>
<g>
</g>
<g>
</g>
<g>
</g>
<g>
</g>
</svg>
