<?xml version="1.0" encoding="utf-8"?>
<!-- Generator: Adobe Illustrator 21.1.0, SVG Export Plug-In . SVG Version: 6.00 Build 0)  -->
<svg version="1.1" id="Capa_1" xmlns="http://www.w3.org/2000/svg" xmlns:xlink="http://www.w3.org/1999/xlink" x="0px" y="0px"
	 viewBox="0 0 60 60" style="enable-background:new 0 0 60 60;" xml:space="preserve">
<style type="text/css">
	.st0{fill:#0B4F6C;}
</style>
<g>
	<path class="st0" d="M53,21c0-7.2-3.6-13.5-9.1-17.3l0,0l-0.1-0.1c0,0,0,0,0,0l-0.2-0.2c-0.5-0.3-0.9-0.6-1.4-0.8
		c-0.2-0.1-0.3-0.2-0.5-0.3c-0.4-0.2-0.8-0.4-1.1-0.5c-0.2-0.1-0.4-0.2-0.6-0.3c-0.4-0.2-0.8-0.3-1.2-0.4C38.4,1,38.3,1,38.1,0.9
		c-0.6-0.2-1.1-0.3-1.7-0.4c-0.2,0-0.3-0.1-0.5-0.1c-0.5-0.1-0.9-0.2-1.4-0.2c-0.2,0-0.4,0-0.6-0.1C33.3,0,32.6,0,32,0
		c-0.6,0-1.3,0-1.9,0.1c-0.2,0-0.4,0-0.5,0.1c-0.5,0.1-1,0.1-1.5,0.2c-0.2,0-0.3,0.1-0.5,0.1c-1.2,0.3-2.5,0.6-3.6,1.1
		c-0.1,0.1-0.2,0.1-0.4,0.2c-0.5,0.2-1,0.4-1.4,0.7c-0.1,0.1-0.2,0.1-0.3,0.2c-0.6,0.3-1.1,0.6-1.7,1l-0.4,0.3l0,0
		c-0.7,0.5-1.3,1-1.9,1.5L15,2.6l-0.7,0.7C9.6,8,7,14.3,7,21s2.6,13,7.3,17.7c4.5,4.5,10.4,7,16.7,7.3v9H21v5h22v-5H33v-9
		c6.3-0.2,12.2-2.8,16.7-7.3l0.7-0.7l-2.9-2.9C50.9,31.4,53,26.4,53,21z M21.8,5c0.9-0.6,1.8-1.1,2.7-1.5c0.1,0,0.2-0.1,0.3-0.1
		c0.5-0.2,0.9-0.4,1.4-0.5c0.1,0,0.2-0.1,0.3-0.1c0.5-0.2,1.1-0.3,1.7-0.4c0.1,0,0.2,0,0.3,0c0.5-0.1,1-0.2,1.4-0.2
		c0.2,0,0.3,0,0.5,0C30.8,2,31.4,2,32,2c0.6,0,1.1,0,1.7,0.1c0.1,0,0.3,0,0.4,0c0.5,0.1,1.1,0.1,1.6,0.2c0.1,0,0.2,0,0.3,0.1
		c0.4,0.1,0.9,0.2,1.3,0.3c0.2,0,0.3,0.1,0.5,0.2c0.5,0.2,1,0.3,1.4,0.5c0.1,0.1,0.2,0.1,0.4,0.2C40,3.8,40.4,4,40.8,4.2
		c0.2,0.1,0.3,0.2,0.5,0.3c0.1,0,0.2,0.1,0.2,0.1c-3.1,1.1-4.9,2.5-6.9,5.1c-0.1,0.2-0.2,0.3-0.3,0.5c-0.1-0.1-0.2-0.2-0.4-0.3
		c-0.7-0.5-1.6-0.5-2.8,0l-0.1,0c-1.4,0.2-2.4,0.3-2.5,2c0,0.9,0.4,1.7,1.2,2.2c0.1,0.1,0.3,0.2,0.5,0.2c0,0,0,0.1,0.1,0.1l0.2,0.3
		c-0.5-0.1-1-0.2-1.5-0.3c-0.6-0.1-1.2-0.2-1.7-0.4c-2.1-0.8-3.7-4.4-4.9-7.1c-0.2-0.5-0.4-1-0.6-1.5C21.7,5.4,21.7,5.2,21.8,5z
		 M35.9,26.9c-1.9-1.6-2.6-3.8-1.8-5.7c0.4-1,0-2.1-1-2.6c0-0.1-0.1-0.4-0.1-0.6c-0.1-0.5-0.2-1.1-0.5-1.7c0.2,0.1,0.3,0.2,0.6,0.3
		c0.2,0.1,0.2,0.1,0.3,0.2c0.2,0.9,0.8,1.5,1.6,1.7c0.7,0.2,1.5,0.1,2.2-0.4c0.2-0.1,0.2-0.2,1,0.2c0.5,0.3,1.2,0.6,2.1,0.7
		c0.5,0.6,1,1.3,1.4,2c0.6,1.1,1.3,2.2,2.4,2.8c0.4,0.2,0.1,1.4-0.7,3.5c-0.1,0.2-0.1,0.4-0.2,0.6c-1,0.8-1.7,1.7-2.3,2.6
		c-0.6,0.8-1.1,1.6-2,2.3c-1.3,1.1-2.4,1.8-3.8,2.2C36.5,32.3,38.1,28.7,35.9,26.9z M31.5,12.1l-0.7,0.4c0,0,0,0,0,0
		c0,0-0.1,0-0.2-0.1c-0.1-0.1-0.1-0.2-0.1-0.3c0,0,0,0,0-0.1c0.2,0,0.4-0.1,0.7-0.1l0.5-0.1l0.1-0.1c0.8-0.3,1-0.3,1-0.3
		c0,0,0.2,0.2,0.2,1.2l0,0.3c-0.2-0.1-0.4-0.1-0.8-0.2c0-0.1-0.1-0.2-0.2-0.2L31.5,12.1z M31.9,15.5c-0.1-0.1-0.3-0.2-0.4-0.3
		C31.3,15.1,31.1,15,31,15l0.3,0c0.2,0,0.4-0.1,0.5-0.1C31.8,15.1,31.9,15.3,31.9,15.5z M19.9,6.4c0,0,0,0.1,0,0.1
		c0.2,0.4,0.4,0.9,0.6,1.4c1.4,3.1,3.1,7,6,8.1c0.8,0.3,1.5,0.4,2.2,0.5c0.7,0.1,1.3,0.2,1.9,0.5c0,0,0.1,0,0.1,0
		c0.2,0.3,0.3,0.8,0.3,1.2c0.1,0.7,0.2,1.6,1,2c0.1,0.1,0.2,0.1,0.2,0.2c-1.1,2.7-0.2,5.9,2.4,8c0.4,0.4,0.9,1.5-1.3,5.4
		c-0.4,0.7-0.3,1.7,0.2,2.3c0.4,0.5,1,0.7,1.6,0.7c0.2,0,0.5,0,0.7-0.1c1.5-0.5,2.8-1.3,4.3-2.6c1-0.9,1.7-1.8,2.3-2.7
		c0.6-0.9,1.2-1.6,2.1-2.3l0.3-0.2l0.1-0.3c0.1-0.2,0.2-0.5,0.3-0.7c0.7-1.8,1.9-4.9-0.3-6c-0.6-0.3-1.1-1.1-1.6-2
		c-0.4-0.8-0.9-1.6-1.6-2.3c-0.3-0.3-0.7-0.5-1.2-0.6c-0.5-0.1-1-0.3-1.4-0.5c-0.8-0.4-1.9-0.9-3.1,0c-0.1,0.1-0.2,0.2-0.4,0.1
		c-0.1,0-0.2-0.2-0.3-0.4c-0.2-0.7-0.7-1.2-1.5-1.5c0.1-0.3,0.1-0.7,0-1l0.1,0c0.9,0.1,1.6-0.1,2-0.6c0.4-0.5,0.5-1.3,0.3-2.2
		c0,0,0-0.1,0-0.1c1.9-2.5,3.4-3.5,6.4-4.6c0.3-0.1,0.6-0.3,0.8-0.5C48,9.3,51,14.8,51,21c0,10.5-8.5,19-19,19s-19-8.5-19-19
		C13,15.1,15.7,9.9,19.9,6.4z M41,57v1H23v-1H41z M47.5,38c-9,8.3-23.1,8-31.8-0.7C11.4,32.9,9,27.2,9,21c0-5.8,2.1-11.3,6-15.5
		l1.4,1.4C13.1,10.6,11,15.6,11,21c0,11.6,9.4,21,21,21c5.4,0,10.4-2.1,14.1-5.5L47.5,38z"/>
</g>
</svg>
